<?xml version="1.0" encoding="utf-8"?>
<!-- Generator: Adobe Illustrator 23.0.2, SVG Export Plug-In . SVG Version: 6.00 Build 0)  -->
<svg version="1.1" id="Layer_1" xmlns="http://www.w3.org/2000/svg" xmlns:xlink="http://www.w3.org/1999/xlink" x="0px" y="0px"
	 viewBox="0 0 210.21 210.21" style="enable-background:new 0 0 210.21 210.21;" xml:space="preserve">
<style type="text/css">
	.st0{fill:#F9CF10;}
</style>
<g>
	<g>
		<path class="st0" d="M76.64,29.55C65.4,42.9,43.61,67.5,43.61,93.51c0,16.86,12.65,9.13,27.41,16.86
			c9.84,4.92,17.57,13.36,17.57,31.63c0,22.49-16.87,38.65-41.46,38.65c-22.49,0-43.58-14.76-43.58-47.8
			c0-49.9,37.25-89.96,49.91-103.31H76.64z M194.02,29.55c-10.55,13.35-33.04,37.95-33.04,63.96c0,16.86,13.36,9.13,28.11,16.86
			c9.84,4.92,17.57,13.36,17.57,31.63c0,22.49-17.57,38.65-42.17,38.65c-22.49,0-43.57-14.76-43.57-48.49
			c0-49.2,37.95-89.96,49.9-102.61H194.02z"/>
	</g>
</g>
</svg>
